<?xml version="1.0" encoding="iso-8859-1"?>
<!-- Generator: Adobe Illustrator 19.0.0, SVG Export Plug-In . SVG Version: 6.00 Build 0)  -->
<svg xmlns="http://www.w3.org/2000/svg" xmlns:xlink="http://www.w3.org/1999/xlink" version="1.1" id="Layer_1" x="0px" y="0px" viewBox="0 0 511.999 511.999" style="enable-background:new 0 0 511.999 511.999;" xml:space="preserve" width="512px" height="512px">
<g>
	<g>
		<path d="M256.083,266.918c-21.354,0-39.613-13.203-47.093-31.884v4.104c0,25.354,20.628,45.981,45.981,45.981    c25.103,0,45.561-20.224,45.962-45.234C292.425,255.959,275.538,266.918,256.083,266.918z" fill="#D80027"/>
	</g>
</g>
<g>
	<g>
		<path d="M97.008,93.395v303.528h317.983V93.395H97.008z M334.309,239.137c0.001,38.036-26.91,69.894-62.689,77.566l0.058,27.481    h11.64c9.211,0,16.678,7.467,16.678,16.678c0,9.211-7.467,16.678-16.678,16.678c-7.04,0-49.621,0-56.692,0    c-9.211,0-16.678-7.467-16.678-16.678c0-9.211,7.467-16.678,16.678-16.678h11.695l-0.058-27.495    c-35.748-7.695-62.629-39.538-62.629-77.552v-43.442c0-9.211,7.467-16.678,16.678-16.678c5.289,0,9.994,2.469,13.049,6.31v-16.87    c0-28.013,22.709-50.722,50.722-50.722c28.013,0,50.722,22.709,50.722,50.722v14.565c2.914-2.492,6.69-4.006,10.825-4.006    c9.211,0,16.678,7.467,16.678,16.678V239.137z" fill="#D80027"/>
	</g>
</g>
<g>
	<g>
		<path d="M97.008,430.28v39.108c0,23.496,19.116,42.611,42.611,42.611H372.38c23.495,0,42.611-19.114,42.611-42.611V430.28H97.008z     M255.999,490.979c-13.101,0-23.722-10.621-23.722-23.722c0-13.101,10.621-23.722,23.722-23.722    c13.101,0,23.722,10.621,23.722,23.722C279.721,480.358,269.1,490.979,255.999,490.979z" fill="#D80027"/>
	</g>
</g>
<g>
	<g>
		<path d="M372.38,0H139.619c-23.495,0-42.611,19.114-42.611,42.611v17.428h317.983V42.611C414.991,19.114,395.875,0,372.38,0z" fill="#D80027"/>
	</g>
</g>
<g>
</g>
<g>
</g>
<g>
</g>
<g>
</g>
<g>
</g>
<g>
</g>
<g>
</g>
<g>
</g>
<g>
</g>
<g>
</g>
<g>
</g>
<g>
</g>
<g>
</g>
<g>
</g>
<g>
</g>
</svg>
